<svg width="1308" height="247" viewBox="0 0 346.075 65.352" xml:space="preserve" xmlns="http://www.w3.org/2000/svg"><defs><clipPath clipPathUnits="userSpaceOnUse" id="a"><path d="M0 1000h1000V0H0Z" transform="translate(-441.244 -615.398)"/></clipPath><clipPath clipPathUnits="userSpaceOnUse" id="b"><path d="M0 1000h1000V0H0Z" transform="translate(-446.896 -604.094)"/></clipPath><clipPath clipPathUnits="userSpaceOnUse" id="c"><path d="M0 1000h1000V0H0Z" transform="translate(-454.656 -592.233)"/></clipPath><clipPath clipPathUnits="userSpaceOnUse" id="d"><path d="M0 1000h1000V0H0Z" transform="translate(-454.656 -592.233)"/></clipPath><clipPath clipPathUnits="userSpaceOnUse" id="e"><path d="M0 1000h1000V0H0Z" transform="translate(-414.754 -790.28)"/></clipPath><clipPath clipPathUnits="userSpaceOnUse" id="f"><path d="M0 1000h1000V0H0Z" transform="translate(-421.622 -795.376)"/></clipPath><clipPath clipPathUnits="userSpaceOnUse" id="g"><path d="M0 1000h1000V0H0Z" transform="translate(-506.988 -403.77)"/></clipPath><clipPath clipPathUnits="userSpaceOnUse" id="h"><path d="M0 1000h1000V0H0Z" transform="translate(-401.665 -528.597)"/></clipPath><clipPath clipPathUnits="userSpaceOnUse" id="i"><path d="M0 1000h1000V0H0Z" transform="translate(-590.8 -260.861)"/></clipPath><clipPath clipPathUnits="userSpaceOnUse" id="j"><path d="M0 1000h1000V0H0Z" transform="translate(-445.9 -281.814)"/></clipPath><clipPath clipPathUnits="userSpaceOnUse" id="k"><path d="M0 1000h1000V0H0Z" transform="translate(-414.754 -411.828)"/></clipPath><clipPath clipPathUnits="userSpaceOnUse" id="l"><path d="M0 1000h1000V0H0Z" transform="translate(-414.754 -406.202)"/></clipPath><clipPath clipPathUnits="userSpaceOnUse" id="m"><path d="M0 1000h1000V0H0Z" transform="translate(-468.25 -326.217)"/></clipPath><clipPath clipPathUnits="userSpaceOnUse" id="n"><path d="M0 1000h1000V0H0Z" transform="translate(-677.382 -281.814)"/></clipPath><clipPath clipPathUnits="userSpaceOnUse" id="o"><path d="M0 1000h1000V0H0Z" transform="translate(-414.754 -430.479)"/></clipPath><clipPath clipPathUnits="userSpaceOnUse" id="p"><path d="M0 1000h1000V0H0Z" transform="translate(-414.754 -423.83)"/></clipPath><clipPath clipPathUnits="userSpaceOnUse" id="q"><path d="M0 1000h1000V0H0Z" transform="translate(-683.37 -275.593)"/></clipPath><clipPath clipPathUnits="userSpaceOnUse" id="r"><path d="M0 1000h1000V0H0Z" transform="translate(-499.007 -303.013)"/></clipPath><clipPath clipPathUnits="userSpaceOnUse" id="s"><path d="M0 1000h1000V0H0Z" transform="translate(-502.11 -263.856)"/></clipPath><clipPath clipPathUnits="userSpaceOnUse" id="t"><path d="M0 1000h1000V0H0Z" transform="translate(-548.015 -267.51)"/></clipPath><clipPath clipPathUnits="userSpaceOnUse" id="u"><path d="M0 1000h1000V0H0Z" transform="translate(-360.205 -495.672)"/></clipPath><clipPath clipPathUnits="userSpaceOnUse" id="v"><path d="M0 1000h1000V0H0Z" transform="translate(-445.903 -495.339)"/></clipPath><clipPath clipPathUnits="userSpaceOnUse" id="w"><path d="M0 1000h1000V0H0Z" transform="translate(-463.198 -436.304)"/></clipPath><clipPath clipPathUnits="userSpaceOnUse" id="x"><path d="M0 1000h1000V0H0Z" transform="translate(-378.054 -440.468)"/></clipPath><clipPath clipPathUnits="userSpaceOnUse" id="y"><path d="M0 1000h1000V0H0Z" transform="translate(-378.05 -374.274)"/></clipPath><clipPath clipPathUnits="userSpaceOnUse" id="z"><path d="M0 1000h1000V0H0Z" transform="translate(-378.05 -374.274)"/></clipPath><clipPath clipPathUnits="userSpaceOnUse" id="A"><path d="M0 1000h1000V0H0Z" transform="translate(-378.05 -332.264)"/></clipPath><clipPath clipPathUnits="userSpaceOnUse" id="B"><path d="M0 1000h1000V0H0Z" transform="translate(-378.05 -332.264)"/></clipPath><clipPath clipPathUnits="userSpaceOnUse" id="C"><path d="M0 1000h1000V0H0Z" transform="translate(-351.12 -329.38)"/></clipPath><clipPath clipPathUnits="userSpaceOnUse" id="D"><path d="M0 1000h1000V0H0Z" transform="translate(-351.114 -369.905)"/></clipPath><clipPath clipPathUnits="userSpaceOnUse" id="E"><path d="M0 1000h1000V0H0Z" transform="translate(-365.25 -390.573)"/></clipPath><clipPath clipPathUnits="userSpaceOnUse" id="F"><path d="M0 1000h1000V0H0Z" transform="translate(-468.519 -326.161)"/></clipPath><clipPath clipPathUnits="userSpaceOnUse" id="G"><path d="M0 1000h1000V0H0Z" transform="translate(-458.197 -328.034)"/></clipPath><clipPath clipPathUnits="userSpaceOnUse" id="H"><path d="M0 1000h1000V0H0Z" transform="translate(-447.898 -373.278)"/></clipPath><clipPath clipPathUnits="userSpaceOnUse" id="I"><path d="M0 1000h1000V0H0Z" transform="translate(-414.754 -519.065)"/></clipPath><clipPath clipPathUnits="userSpaceOnUse" id="J"><path d="M0 1000h1000V0H0Z" transform="translate(-358.879 -539.022)"/></clipPath><clipPath clipPathUnits="userSpaceOnUse" id="K"><path d="M0 1000h1000V0H0Z" transform="translate(-401.665 -549.214)"/></clipPath><clipPath clipPathUnits="userSpaceOnUse" id="L"><path d="M0 1000h1000V0H0Z" transform="translate(-354.551 -537.689)"/></clipPath><clipPath clipPathUnits="userSpaceOnUse" id="M"><path d="M0 1000h1000V0H0Z" transform="translate(-396.901 -548.22)"/></clipPath><clipPath clipPathUnits="userSpaceOnUse" id="N"><path d="M0 1000h1000V0H0Z" transform="translate(-351.12 -329.574)"/></clipPath><clipPath clipPathUnits="userSpaceOnUse" id="O"><path d="M0 1000h1000V0H0Z" transform="translate(-414.757 -335.911)"/></clipPath><clipPath clipPathUnits="userSpaceOnUse" id="P"><path d="M0 1000h1000V0H0Z" transform="translate(-316.747 -300.773)"/></clipPath><clipPath clipPathUnits="userSpaceOnUse" id="Q"><path d="M0 1000h1000V0H0Z" transform="translate(-316.747 -296.006)"/></clipPath><clipPath clipPathUnits="userSpaceOnUse" id="R"><path d="M0 1000h1000V0H0Z" transform="translate(-414.754 -276.822)"/></clipPath><clipPath clipPathUnits="userSpaceOnUse" id="S"><path d="M0 1000h1000V0H0Z" transform="translate(-520.823 -358.342)"/></clipPath><clipPath clipPathUnits="userSpaceOnUse" id="T"><path d="M0 1000h1000V0H0Z" transform="translate(-555.208 -347.833)"/></clipPath><clipPath clipPathUnits="userSpaceOnUse" id="U"><path d="M0 1000h1000V0H0Z" transform="translate(-585.516 -339.135)"/></clipPath><clipPath clipPathUnits="userSpaceOnUse" id="V"><path d="M0 1000h1000V0H0Z" transform="translate(-616.156 -330.652)"/></clipPath><clipPath clipPathUnits="userSpaceOnUse" id="W"><path d="M0 1000h1000V0H0Z" transform="translate(-647.498 -322.623)"/></clipPath><clipPath clipPathUnits="userSpaceOnUse" id="X"><path d="M0 1000h1000V0H0Z" transform="translate(-678.818 -314.58)"/></clipPath><clipPath clipPathUnits="userSpaceOnUse" id="Y"><path d="M0 1000h1000V0H0Z" transform="translate(-585.265 -255.868)"/></clipPath><clipPath clipPathUnits="userSpaceOnUse" id="Z"><path d="M0 1000h1000V0H0Z" transform="translate(-547.976 -260.783)"/></clipPath><clipPath clipPathUnits="userSpaceOnUse" id="aa"><path d="M0 1000h1000V0H0Z" transform="translate(-644.955 -200.34)"/></clipPath><clipPath clipPathUnits="userSpaceOnUse" id="ab"><path d="M0 1000h1000V0H0Z" transform="translate(-606.334 -201.448)"/></clipPath><clipPath clipPathUnits="userSpaceOnUse" id="ac"><path d="M0 1000h1000V0H0Z" transform="translate(-626.323 -202.8)"/></clipPath><clipPath clipPathUnits="userSpaceOnUse" id="ad"><path d="M0 1000h1000V0H0Z" transform="translate(-642.545 -198.49)"/></clipPath><clipPath clipPathUnits="userSpaceOnUse" id="ae"><path d="M0 1000h1000V0H0Z" transform="translate(-626.307 -200.31)"/></clipPath><clipPath clipPathUnits="userSpaceOnUse" id="af"><path d="M0 1000h1000V0H0Z" transform="translate(-592.797 -218.623)"/></clipPath><clipPath clipPathUnits="userSpaceOnUse" id="ag"><path d="M0 1000h1000V0H0Z" transform="translate(-622.564 -217.46)"/></clipPath><clipPath clipPathUnits="userSpaceOnUse" id="ah"><path d="M0 1000h1000V0H0Z" transform="translate(-650.614 -215.963)"/></clipPath><clipPath clipPathUnits="userSpaceOnUse" id="ai"><path d="M0 1000h1000V0H0Z" transform="translate(-397.768 -275.593)"/></clipPath><clipPath clipPathUnits="userSpaceOnUse" id="aj"><path d="M0 1000h1000V0H0Z" transform="translate(-326.17 -271.506)"/></clipPath><clipPath clipPathUnits="userSpaceOnUse" id="ak"><path d="M0 1000h1000V0H0Z" transform="translate(-414.754 -530.175)"/></clipPath><clipPath clipPathUnits="userSpaceOnUse" id="al"><path d="M0 1000h1000V0H0Z" transform="translate(-351.114 -163.038)"/></clipPath><clipPath clipPathUnits="userSpaceOnUse" id="am"><path d="M0 1000h1000V0H0Z" transform="translate(-515.512 -157.98)"/></clipPath><clipPath clipPathUnits="userSpaceOnUse" id="an"><path d="M0 1000h1000V0H0Z" transform="translate(-629.999 -160.417)"/></clipPath><clipPath clipPathUnits="userSpaceOnUse" id="ao"><path d="M0 1000h1000V0H0Z" transform="translate(-350.314 -222.984)"/></clipPath><clipPath clipPathUnits="userSpaceOnUse" id="ap"><path d="M0 1000h1000V0H0Z" transform="translate(-638.693 -411.443)"/></clipPath><clipPath clipPathUnits="userSpaceOnUse" id="aq"><path d="M0 1000h1000V0H0Z" transform="translate(-611.863 -388.593)"/></clipPath><clipPath clipPathUnits="userSpaceOnUse" id="ar"><path d="M0 1000h1000V0H0Z" transform="translate(-612.362 -405.11)"/></clipPath><clipPath clipPathUnits="userSpaceOnUse" id="as"><path d="M0 1000h1000V0H0Z" transform="translate(-627.263 -467.29)"/></clipPath><clipPath clipPathUnits="userSpaceOnUse" id="at"><path d="M0 1000h1000V0H0Z" transform="translate(-616.384 -403.53)"/></clipPath><clipPath clipPathUnits="userSpaceOnUse" id="au"><path d="M0 1000h1000V0H0Z" transform="translate(-635.01 -403.073)"/></clipPath><clipPath clipPathUnits="userSpaceOnUse" id="av"><path d="M0 1000h1000V0H0Z" transform="translate(-622.942 -386.604)"/></clipPath><clipPath clipPathUnits="userSpaceOnUse" id="aw"><path d="M0 1000h1000V0H0Z" transform="translate(-369.977 -537.355)"/></clipPath><clipPath clipPathUnits="userSpaceOnUse" id="ax"><path d="M0 1000h1000V0H0Z" transform="translate(-380.811 -540.64)"/></clipPath><clipPath clipPathUnits="userSpaceOnUse" id="ay"><path d="M0 1000h1000V0H0Z" transform="translate(-446.591 -539.989)"/></clipPath><clipPath clipPathUnits="userSpaceOnUse" id="az"><path d="M0 1000h1000V0H0Z" transform="translate(-450.788 -538.475)"/></clipPath><clipPath clipPathUnits="userSpaceOnUse" id="aA"><path d="M0 1000h1000V0H0Z" transform="translate(-686.59 -338.582)"/></clipPath></defs><path style="font-weight:700;font-size:19.1898px;line-height:0;font-family:'Open Sans';-inkscape-font-specification:'Open Sans Bold';fill:#595959;stroke-width:.257003" d="M64.945 17.982q1.865 0 3.074.45 1.218.45 1.808 1.358.59.91.59 2.296 0 .937-.356 1.64-.356.702-.937 1.19-.58.487-1.255.796l4.029 5.969h-3.224l-3.27-5.257h-1.546v5.257h-2.904v-13.7Zm-.206 2.38h-.88v3.701h.936q1.443 0 2.062-.478.627-.487.627-1.424 0-.975-.674-1.387-.665-.412-2.07-.412zm-.656-3.533q-.262-.43-.693-.946-.431-.525-.89-1.021-.46-.497-.816-.853v-.253h1.903q.496.319 1.068.73.571.404 1.077.92.497-.516 1.087-.929.6-.421 1.106-.721h1.893v.253q-.338.347-.797.843-.459.497-.9 1.022-.43.524-.702.955zm9.539 14.852v-13.7h2.905v13.7zm5.5-17.925v.197q-.272.262-.712.646-.44.384-.946.806-.506.412-.994.797-.487.374-.852.627h-1.902v-.253q.309-.356.712-.843.412-.497.815-1.021.403-.525.675-.956zm6.653 17.925-3.298-10.748h-.085l.056 1.162q.047.769.085 1.64.037.871.037 1.574v6.372h-2.595v-13.7h3.954l3.242 10.477h.056l3.439-10.476h3.954V31.68h-2.708v-6.484q0-.647.019-1.49.028-.843.065-1.602l.057-1.153h-.085l-3.532 10.729Zm20.38-3.804q0 1.218-.59 2.117-.591.9-1.725 1.387-1.124.487-2.736.487-.712 0-1.396-.093-.675-.094-1.302-.272-.619-.188-1.181-.46v-2.698q.974.431 2.024.778 1.05.346 2.08.346.712 0 1.143-.187.44-.187.637-.515t.197-.75q0-.515-.347-.88-.346-.366-.955-.685-.6-.318-1.359-.684-.478-.225-1.04-.543-.562-.328-1.068-.797-.506-.468-.834-1.133-.319-.675-.319-1.612 0-1.227.562-2.099.563-.871 1.603-1.33 1.05-.469 2.473-.469 1.069 0 2.034.253.974.244 2.033.712l-.937 2.258q-.946-.384-1.696-.59-.75-.215-1.527-.215-.544 0-.928.178-.384.168-.58.487-.198.309-.198.721 0 .488.281.825.29.328.862.637.581.31 1.443.722 1.05.496 1.79 1.04.75.534 1.153 1.265.403.721.403 1.799zm13.502 3.804h-3.298l-3.59-5.772-1.227.88v4.892h-2.904v-13.7h2.904v6.27q.29-.404.572-.806.281-.403.571-.806l3.711-4.657h3.223l-4.778 6.062zm14.158-6.868q0 1.583-.394 2.886-.393 1.293-1.199 2.23-.796.937-2.024 1.443-1.227.496-2.905.496-1.677 0-2.904-.496-1.228-.506-2.034-1.443-.796-.937-1.19-2.24-.393-1.302-.393-2.895 0-2.127.693-3.701.703-1.584 2.155-2.455 1.453-.872 3.692-.872 2.23 0 3.664.872 1.443.871 2.136 2.455.703 1.583.703 3.72zm-9.998 0q0 1.433.356 2.473.366 1.031 1.134 1.593.768.553 1.986.553 1.237 0 2.006-.553.768-.562 1.115-1.593.356-1.04.356-2.473 0-2.156-.806-3.392-.806-1.237-2.652-1.237-1.227 0-2.005.562-.768.553-1.134 1.593-.356 1.03-.356 2.474zm23.856 6.868h-3.298l-3.589-5.772-1.227.88v4.892h-2.905v-13.7h2.905v6.27q.29-.404.571-.806.281-.403.572-.806l3.71-4.657h3.224l-4.78 6.062zm10.11 0-.993-3.261h-4.994l-.993 3.26h-3.13l4.835-13.754h3.551l4.854 13.755zm-1.686-5.697-.993-3.186q-.094-.319-.253-.815-.15-.506-.31-1.021-.15-.525-.243-.91-.094.385-.263.956-.159.563-.309 1.069l-.215.721-.984 3.186zm11.825 5.697h-2.905V20.399h-3.72v-2.417h10.345v2.417h-3.72zm18.262-6.868q0 1.583-.394 2.886-.393 1.293-1.199 2.23-.796.937-2.024 1.443-1.227.496-2.905.496-1.677 0-2.904-.496-1.228-.506-2.034-1.443-.796-.937-1.19-2.24-.393-1.302-.393-2.895 0-2.127.693-3.701.703-1.584 2.155-2.455 1.453-.872 3.692-.872 2.23 0 3.664.872 1.443.871 2.136 2.455.703 1.583.703 3.72zm-9.998 0q0 1.433.356 2.473.366 1.031 1.134 1.593.768.553 1.986.553 1.237 0 2.006-.553.768-.562 1.115-1.593.356-1.04.356-2.473 0-2.156-.806-3.392-.806-1.237-2.652-1.237-1.227 0-2.005.562-.768.553-1.134 1.593-.356 1.03-.356 2.474zm12.837 6.868v-13.7h2.905v11.301h5.556v2.399zm10.841 0v-13.7h2.905v13.7zm12.172-11.478q-.834 0-1.48.327-.638.32-1.078.928-.431.61-.656 1.471-.225.862-.225 1.94 0 1.452.356 2.483.365 1.021 1.124 1.565.76.534 1.959.534.834 0 1.668-.188.843-.187 1.827-.534v2.436q-.91.375-1.79.535-.88.168-1.977.168-2.118 0-3.486-.871-1.358-.881-2.014-2.455-.656-1.584-.656-3.692 0-1.555.422-2.848.421-1.293 1.236-2.24.816-.946 2.015-1.462 1.2-.515 2.755-.515 1.021 0 2.042.262 1.031.253 1.968.703l-.937 2.361q-.768-.365-1.546-.637-.778-.271-1.527-.271zm17.428 11.478h-3.298l-3.589-5.772-1.227.88v4.892h-2.905v-13.7h2.905v6.27q.29-.404.571-.806.281-.403.572-.806l3.71-4.657h3.224l-4.78 6.062zm10.11 0-.993-3.261h-4.994l-.993 3.26h-3.13l4.835-13.754h3.551l4.854 13.755zm-1.686-5.697-.994-3.186q-.093-.319-.253-.815-.15-.506-.309-1.021-.15-.525-.243-.91-.094.385-.263.956-.159.563-.309 1.069l-.215.721-.984 3.186zm1.874-12.228v.197q-.272.262-.712.646-.44.384-.947.806-.506.412-.993.797-.487.374-.853.627h-1.902v-.253q.31-.356.712-.843.413-.497.815-1.021.403-.525.675-.956zm12.509 17.925h-2.858v-13.7h7.852v2.38h-4.994v3.533h4.647v2.37h-4.647zm16.06 0-.993-3.261h-4.995l-.993 3.26h-3.13l4.836-13.754h3.55l4.854 13.755zm-1.687-5.697-.993-3.186q-.094-.319-.253-.815-.15-.506-.31-1.021-.15-.525-.243-.91-.093.385-.262.956-.16.563-.31 1.069l-.215.721-.984 3.186zm10.532-8.002q1.865 0 3.074.45 1.218.45 1.808 1.358.59.91.59 2.296 0 .937-.356 1.64-.356.702-.937 1.19-.58.487-1.255.796l4.029 5.969h-3.224l-3.27-5.257h-1.546v5.257h-2.904v-13.7Zm-.206 2.38h-.88v3.701h.936q1.443 0 2.062-.478.627-.487.627-1.424 0-.975-.674-1.387-.665-.412-2.071-.412zm21.036 11.319h-3.692l-5.96-10.363h-.084q.038.646.066 1.302l.056 1.312.056 1.302v6.447h-2.595v-13.7h3.663l5.95 10.261h.066q-.019-.637-.047-1.265l-.056-1.256-.038-1.255v-6.484h2.615zm15.882-6.868q0 1.583-.394 2.886-.393 1.293-1.199 2.23-.796.937-2.024 1.443-1.227.496-2.905.496-1.677 0-2.904-.496-1.228-.506-2.034-1.443-.796-.937-1.19-2.24-.393-1.302-.393-2.895 0-2.127.693-3.701.703-1.584 2.155-2.455 1.453-.872 3.692-.872 2.23 0 3.664.872 1.443.871 2.136 2.455.703 1.583.703 3.72zm-9.998 0q0 1.433.356 2.473.366 1.031 1.134 1.593.768.553 1.986.553 1.237 0 2.006-.553.768-.562 1.115-1.593.356-1.04.356-2.473 0-2.156-.806-3.392-.806-1.237-2.652-1.237-1.227 0-2.005.562-.768.553-1.134 1.593-.356 1.03-.356 2.474zm20.923 3.064q0 1.218-.59 2.117-.59.9-1.724 1.387-1.124.487-2.736.487-.712 0-1.396-.093-.675-.094-1.303-.272-.618-.188-1.18-.46v-2.698q.974.431 2.024.778 1.05.346 2.08.346.712 0 1.143-.187.44-.187.637-.515t.197-.75q0-.515-.347-.88-.347-.366-.956-.685-.6-.318-1.358-.684-.478-.225-1.04-.543-.563-.328-1.068-.797-.506-.468-.834-1.133-.319-.675-.319-1.612 0-1.227.562-2.099.562-.871 1.602-1.33 1.05-.469 2.474-.469 1.068 0 2.033.253.975.244 2.034.712l-.937 2.258q-.947-.384-1.696-.59-.75-.215-1.528-.215-.543 0-.927.178-.384.168-.581.487-.197.309-.197.721 0 .488.281.825.29.328.862.637.581.31 1.443.722 1.05.496 1.79 1.04.75.534 1.152 1.265.403.721.403 1.799zm7.768 3.804h-2.905V20.399h-3.72v-2.417h10.345v2.417h-3.72z" transform="scale(1.02906 .97176)" aria-label="ŘÍMSKOKATOLICKÁ FARNOST"/><path style="font-weight:700;font-size:19.1898px;line-height:0;font-family:'Open Sans';-inkscape-font-specification:'Open Sans Bold';fill:#c29236;stroke-width:.257003" d="M64.945 42.281q1.865 0 3.074.45 1.218.45 1.808 1.359.59.909.59 2.296 0 .937-.356 1.64-.356.702-.937 1.19-.58.487-1.255.796l4.029 5.968h-3.224l-3.27-5.256h-1.546v5.256h-2.904V42.281Zm-.206 2.38h-.88v3.702h.936q1.443 0 2.062-.478.627-.487.627-1.424 0-.975-.674-1.387-.665-.413-2.07-.413zm21.317 4.451q0 1.584-.394 2.886-.393 1.293-1.199 2.23-.796.937-2.024 1.443-1.227.497-2.905.497-1.677 0-2.904-.497-1.228-.506-2.034-1.443-.796-.937-1.19-2.24-.393-1.302-.393-2.895 0-2.127.693-3.7.703-1.584 2.155-2.456 1.453-.871 3.692-.871 2.23 0 3.664.871 1.443.872 2.136 2.455.703 1.584.703 3.72zm-9.998 0q0 1.434.356 2.474.366 1.03 1.134 1.593.768.553 1.986.553 1.237 0 2.006-.553.768-.562 1.115-1.593.356-1.04.356-2.474 0-2.155-.806-3.392t-2.652-1.237q-1.227 0-2.005.563-.768.552-1.134 1.593-.356 1.03-.356 2.473zm23.856 6.868h-3.298l-3.589-5.771-1.227.88v4.891h-2.905V42.281H91.8v6.269q.29-.403.571-.806.281-.403.572-.806l3.71-4.657h3.224l-4.78 6.063zm5.988-8.058 2.857-5.64h3.13l-4.544 8.367v5.331h-2.886v-5.237l-4.545-8.462h3.148zm13.53-3.42q-.834 0-1.48.328-.638.319-1.078.928-.431.609-.656 1.47-.225.863-.225 1.94 0 1.453.356 2.483.366 1.022 1.125 1.565.759.534 1.958.534.834 0 1.668-.187.843-.187 1.827-.534v2.436q-.909.375-1.79.534-.88.169-1.977.169-2.117 0-3.485-.872-1.36-.88-2.015-2.455-.656-1.583-.656-3.691 0-1.556.422-2.849.421-1.293 1.237-2.24.815-.946 2.014-1.46 1.2-.516 2.755-.516 1.021 0 2.043.262 1.03.253 1.967.703l-.937 2.361q-.768-.365-1.546-.637t-1.527-.272zm14.795 11.478-.993-3.26h-4.994l-.994 3.26h-3.13l4.836-13.755h3.551l4.854 13.755zm-1.686-5.697-.994-3.185q-.093-.319-.253-.816-.15-.506-.309-1.02-.15-.526-.244-.91-.093.384-.262.956-.16.562-.31 1.068-.149.506-.215.722l-.983 3.185zm18.693 5.697h-3.692l-5.96-10.363h-.084q.038.647.066 1.303l.056 1.311.056 1.303v6.446h-2.595V42.281h3.663l5.95 10.26h.066q-.019-.637-.047-1.264l-.056-1.256-.038-1.255V42.28h2.615zm7.711-8.058 2.858-5.64h3.13l-4.545 8.367v5.331h-2.886v-5.237l-4.544-8.462h3.148z" transform="scale(1.02906 .97176)" aria-label="ROKYCANY"/><path style="fill:#595959;fill-opacity:1;stroke-width:.238754" d="M55.775 16.546v52.699"/><path style="fill:#999;fill-opacity:1;stroke:#999;stroke-width:.194806;stroke-dasharray:none;stroke-opacity:1" d="M50.239 8.663h1.179v53.824h-1.179z"/><path d="M31.84 34.08h.003v-.946h-.002z" style="fill:#fcc009;fill-opacity:1;fill-rule:nonzero;stroke:none;stroke-width:.09972"/><path d="M31.84 34.08h.003v-.946h-.002z" style="fill:none;stroke:#7f731c;stroke-width:.0398889;stroke-linecap:butt;stroke-linejoin:miter;stroke-miterlimit:10;stroke-dasharray:none;stroke-opacity:1"/><path d="M31.507 33.42h.667z" style="fill:#fcc009;fill-opacity:1;fill-rule:nonzero;stroke:none;stroke-width:.09972"/><path d="M31.507 33.42h.666z" style="fill:none;stroke:#7f731c;stroke-width:.0398889;stroke-linecap:butt;stroke-linejoin:miter;stroke-miterlimit:10;stroke-dasharray:none;stroke-opacity:1"/><path d="M11.148 1.348h.003V.025h-.003z" style="fill:#fcc009;fill-opacity:1;fill-rule:nonzero;stroke:none;stroke-width:.09972"/><path d="M11.148 1.348h.003V.025h-.003z" style="fill:none;stroke:#7f731c;stroke-width:.0498588;stroke-linecap:butt;stroke-linejoin:miter;stroke-miterlimit:10;stroke-dasharray:none;stroke-opacity:1"/><path d="M10.682.424h.93z" style="fill:#fcc009;fill-opacity:1;fill-rule:nonzero;stroke:none;stroke-width:.09972"/><path d="M10.682.424h.93z" style="fill:none;stroke:#7f731c;stroke-width:.0498588;stroke-linecap:butt;stroke-linejoin:miter;stroke-miterlimit:10;stroke-dasharray:none;stroke-opacity:1"/><path d="M11.541.709h-.93 1.062Z" style="fill:#fcc009;fill-opacity:1;fill-rule:nonzero;stroke:none;stroke-width:.09972"/><path d="M10.61.709H11.673z" style="fill:none;stroke:#7f731c;stroke-width:.0498588;stroke-linecap:butt;stroke-linejoin:miter;stroke-miterlimit:10;stroke-dasharray:none;stroke-opacity:1"/><path d="m15.319 49.298-1.226 1.084v2.455l-3.105-.266-9.386.532 5.446-4.112 3.94-.4z" style="fill:#eac286;fill-opacity:1;fill-rule:nonzero;stroke:#df814e;stroke-width:.0857586;stroke-linecap:butt;stroke-linejoin:miter;stroke-miterlimit:10;stroke-dasharray:none;stroke-opacity:1"/><path d="m19.168 42.808 18.925 4.855.244-.317-18.728-5.034-.44-.663z" style="fill:#eac286;fill-opacity:1;fill-rule:nonzero;stroke:none;stroke-width:.09972"/><path d="m19.168 42.808 18.925 4.855.244-.317-18.728-5.034-.44-.663v1.159" style="fill:none;stroke:#df814e;stroke-width:.0857586;stroke-linecap:butt;stroke-linejoin:miter;stroke-miterlimit:10;stroke-dasharray:none;stroke-opacity:1"/><path d="M14.093 53.633v11.365h-3.105V53.335Z" style="fill:#eac286;fill-opacity:1;fill-rule:nonzero;stroke:#df814e;stroke-width:.0857586;stroke-linecap:butt;stroke-linejoin:miter;stroke-miterlimit:10;stroke-dasharray:none;stroke-opacity:1"/><path d="M19.389 50.723v13.16l-.399.43v.835l-4.897-.15V50.99Z" style="fill:#eac286;fill-opacity:1;fill-rule:nonzero;stroke:#df814e;stroke-width:.0857586;stroke-linecap:butt;stroke-linejoin:miter;stroke-miterlimit:10;stroke-dasharray:none;stroke-opacity:1"/><path d="m38.093 47.663-.32.497v5.298l-18.216-2.744-.168.01-5.296.268v-.608l5.075-.37.389-.03 17.619 2.853-8.059-3.947-9.949-1.852v-4.23zM10.988 21.428v3.05l-7.562 1.925v-2.874l2.123-.543 1.447-1.294 1.393.498z" style="fill:#eac286;fill-opacity:1;fill-rule:nonzero;stroke:#df814e;stroke-width:.0857586;stroke-linecap:butt;stroke-linejoin:miter;stroke-miterlimit:10;stroke-dasharray:none;stroke-opacity:1"/><path d="M19.168 42.356v6.497l-2.819-.439-.027-.005-5.334-.967v-7.01z" style="fill:#eac286;fill-opacity:1;fill-rule:nonzero;stroke:#df814e;stroke-width:.0857586;stroke-linecap:butt;stroke-linejoin:miter;stroke-miterlimit:10;stroke-dasharray:none;stroke-opacity:1"/><path d="M19.168 41.99v.366l-8.18-1.923v-.561z" style="fill:#eac286;fill-opacity:1;fill-rule:nonzero;stroke:#df814e;stroke-width:.0857586;stroke-linecap:butt;stroke-linejoin:miter;stroke-miterlimit:10;stroke-dasharray:none;stroke-opacity:1"/><path d="m19.557 41.069-.389.242v.68l-8.18-2.12v-1.197z" style="fill:#eac286;fill-opacity:1;fill-rule:nonzero;stroke:#df814e;stroke-width:.0857586;stroke-linecap:butt;stroke-linejoin:miter;stroke-miterlimit:10;stroke-dasharray:none;stroke-opacity:1"/><path d="M19.168 50.012v-1.16" style="fill:none;stroke:#df814e;stroke-width:.0857586;stroke-linecap:butt;stroke-linejoin:miter;stroke-miterlimit:10;stroke-dasharray:none;stroke-opacity:1"/><path d="M17.797 24.71v2.687l-6.81-2.918v-3.051l2.378 1.094 1.458-.233 1.095 1.328z" style="fill:#eac286;fill-opacity:1;fill-rule:nonzero;stroke:#df814e;stroke-width:.0857586;stroke-linecap:butt;stroke-linejoin:miter;stroke-miterlimit:10;stroke-dasharray:none;stroke-opacity:1"/><path d="m18.416 24.357-.354.354h-.265l-1.879-1.094-1.095-1.328-1.458.233-2.377-1.094-2.6.762-1.392-.498-1.447 1.294-2.123.543-.343.088-.32-.232 2.52-.708 1.459-1.459 1.68.53 2.83-.84 2.476 1.24 1.238-.267 1.328 1.504z" style="fill:#587467;fill-opacity:1;fill-rule:nonzero;stroke:#434b4f;stroke-width:.09972;stroke-linecap:butt;stroke-linejoin:miter;stroke-miterlimit:10;stroke-dasharray:none;stroke-opacity:1"/><path d="M18.726 32.362v7.827l-7.738-2.177v-8.835ZM17.797 27.397v3.594l-6.655-2.963-.154.042v-3.59z" style="fill:#eac286;fill-opacity:1;fill-rule:nonzero;stroke:#df814e;stroke-width:.0857586;stroke-linecap:butt;stroke-linejoin:miter;stroke-miterlimit:10;stroke-dasharray:none;stroke-opacity:1"/><path d="m19.655 31.698-.929.664-7.738-3.185V28.07l.154-.042 6.655 2.963z" style="fill:#eac286;fill-opacity:1;fill-rule:nonzero;stroke:#df814e;stroke-width:.0857586;stroke-linecap:butt;stroke-linejoin:miter;stroke-miterlimit:10;stroke-dasharray:none;stroke-opacity:1"/><path d="m0 0-10.309 7.321-28.597 2.664-17.293-5.329 29.71 154.33v15.896a5.129 5.129 0 0 1 1.552-.233c.582 0 1.138.091 1.656.272V157.99Z" style="fill:#83aa98;fill-opacity:1;fill-rule:nonzero;stroke:#434b4f;stroke-width:1;stroke-linecap:butt;stroke-linejoin:miter;stroke-miterlimit:10;stroke-dasharray:none;stroke-opacity:1" transform="matrix(.09971 0 0 -.09972 13.629 19.57)" clip-path="url(#a)"/><path d="m0 0-19.285 10.308h-26.269l-23.281-7.307s-3.997 9.636 6.984 12.96l17.293 5.329 28.597-2.665 10.309-7.321S2.005 9.313 0 0" style="fill:#749787;fill-opacity:1;fill-rule:nonzero;stroke:#434b4f;stroke-width:1;stroke-linecap:butt;stroke-linejoin:miter;stroke-miterlimit:10;stroke-dasharray:none;stroke-opacity:1" transform="matrix(.09971 0 0 -.09972 14.193 20.698)" clip-path="url(#b)"/><path d="m0 0-12.417-2.664L-37.25 9.752l-28.378-8.42-16.853 5.316s-3.427 6.209 5.885 8.213l23.282 7.308h26.269L-7.76 11.861S-1.319 7.463 0 0" style="fill:#6a8a7b;fill-opacity:1;fill-rule:nonzero;stroke:none" transform="matrix(.09971 0 0 -.09972 14.966 21.88)" clip-path="url(#c)"/><path d="m0 0-12.417-2.664L-37.25 9.752l-28.378-8.42-16.853 5.316s-3.427 6.209 5.885 8.213l23.282 7.308h26.269L-7.76 11.861S-1.319 7.463 0 0z" style="fill:none;stroke:#434b4f;stroke-width:1;stroke-linecap:butt;stroke-linejoin:miter;stroke-miterlimit:10;stroke-dasharray:none;stroke-opacity:1" transform="matrix(.09971 0 0 -.09972 14.966 21.88)" clip-path="url(#d)"/><path d="M0 0v.401h3.208V.039" style="fill:none;stroke:#df814e;stroke-width:.86;stroke-linecap:butt;stroke-linejoin:miter;stroke-miterlimit:10;stroke-dasharray:none;stroke-opacity:1" transform="matrix(.09971 0 0 -.09972 10.988 2.13)" clip-path="url(#e)"/><path d="M0 0a5.334 5.334 0 0 0-3.66-5.057 5.002 5.002 0 0 0-1.656-.272c-.543 0-1.061.078-1.552.233A5.32 5.32 0 0 0-5.316 5.316 5.316 5.316 0 0 0 0 0" style="fill:#fcc008;fill-opacity:1;fill-rule:nonzero;stroke:#fcc008;stroke-width:.86;stroke-linecap:butt;stroke-linejoin:miter;stroke-miterlimit:10;stroke-dasharray:none;stroke-opacity:1" transform="matrix(.09971 0 0 -.09972 11.673 1.622)" clip-path="url(#f)"/><path d="m0 0-6.299-3.945-85.934 24.006v6.648l77.605-21.833Z" style="fill:#eac286;fill-opacity:1;fill-rule:nonzero;stroke:#df814e;stroke-width:.86;stroke-linecap:butt;stroke-linejoin:miter;stroke-miterlimit:10;stroke-dasharray:none;stroke-opacity:1" transform="matrix(.09971 0 0 -.09972 20.185 40.675)" clip-path="url(#g)"/><path d="m0 0-3.893-.996-5.639-1.449v21.07l4.772.996 4.76.996Zm-42.786-10.645-8.653-1.772V8.317l8.653 2.108zm-19.957 28.934v-37.134l-23.954-7.101 9.765-6.208v-81.149l-19.078-4.436 6.312-4.036 4.786-3.052V-363.85l98.001-4.876V37.587Z" style="fill:#eac286;fill-opacity:1;fill-rule:nonzero;stroke:#df814e;stroke-width:.86;stroke-linecap:butt;stroke-linejoin:miter;stroke-miterlimit:10;stroke-dasharray:none;stroke-opacity:1" transform="matrix(.09971 0 0 -.09972 9.682 28.227)" clip-path="url(#h)"/><path d="m0 0-5.536-1.332v-3.661L-42.825-.078l-.634.078-43.238-3.66-2.898 5.328 1.113 1.346 21.406 25.92 18.301 1.332c2.548-2.173 8.226-5.924 14.849-10.05l.103-.065c6.325-3.945 13.49-8.252 19.608-11.86l.052-.039C-9.545 5.536-5.536 3.195-2.975 1.72-1.099.634 0 0 0 0" style="fill:#eac286;fill-opacity:1;fill-rule:nonzero;stroke:#df814e;stroke-width:.86;stroke-linecap:butt;stroke-linejoin:miter;stroke-miterlimit:10;stroke-dasharray:none;stroke-opacity:1" transform="matrix(.09971 0 0 -.09972 28.542 54.927)" clip-path="url(#i)"/><path d="M0 0v-7.98l-31.145 2.987v7.657z" style="fill:#eac286;fill-opacity:1;fill-rule:nonzero;stroke:#df814e;stroke-width:.86;stroke-linecap:butt;stroke-linejoin:miter;stroke-miterlimit:10;stroke-dasharray:none;stroke-opacity:1" transform="matrix(.09971 0 0 -.09972 14.093 52.837)" clip-path="url(#j)"/><path d="m0 0-98.002-16.271" style="fill:#eac286;fill-opacity:1;fill-rule:nonzero;stroke:#df814e;stroke-width:.86;stroke-linecap:butt;stroke-linejoin:miter;stroke-miterlimit:10;stroke-dasharray:none;stroke-opacity:1" transform="matrix(.09971 0 0 -.09972 10.988 39.872)" clip-path="url(#k)"/><path d="m0 0-98.002-15.624" style="fill:none;stroke:#df814e;stroke-width:.86;stroke-linecap:butt;stroke-linejoin:miter;stroke-miterlimit:10;stroke-dasharray:none;stroke-opacity:1" transform="matrix(.09971 0 0 -.09972 10.988 40.433)" clip-path="url(#l)"/><path d="m0 0-10.063-8.912-43.432 7.088V9.701Z" style="fill:#eac286;fill-opacity:1;fill-rule:nonzero;stroke:#df814e;stroke-width:.86;stroke-linecap:butt;stroke-linejoin:miter;stroke-miterlimit:10;stroke-dasharray:none;stroke-opacity:1" transform="matrix(.09971 0 0 -.09972 16.322 48.409)" clip-path="url(#m)"/><path d="m0 0-176.693 28.61-3.893-.284-50.896-3.712 12.288 10.877 10.062 8.912 18.224 16.129 10.322-1.966 2.212-.414 97.562-18.574z" style="fill:#dc6b49;fill-opacity:1;fill-rule:nonzero;stroke:#df814e;stroke-width:.86;stroke-linecap:butt;stroke-linejoin:miter;stroke-miterlimit:10;stroke-dasharray:none;stroke-opacity:1" transform="matrix(.09971 0 0 -.09972 37.176 52.837)" clip-path="url(#n)"/><path d="m0 0-90.021-15.185" style="fill:none;stroke:#df814e;stroke-width:.86;stroke-linecap:butt;stroke-linejoin:miter;stroke-miterlimit:10;stroke-dasharray:none;stroke-opacity:1" transform="matrix(.09971 0 0 -.09972 10.988 38.012)" clip-path="url(#o)"/><path d="m0 0-102.787-17.008" style="fill:none;stroke:#df814e;stroke-width:.86;stroke-linecap:butt;stroke-linejoin:miter;stroke-miterlimit:10;stroke-dasharray:none;stroke-opacity:1" transform="matrix(.09971 0 0 -.09972 10.988 38.674)" clip-path="url(#p)"/><path d="M0 0v-112.85l-98.105-4.307v101.093l5.536 1.332s-1.1.634-2.975 1.72a1563.845 1563.845 0 0 0-11.188 6.532l-.052.039c-6.118 3.608-13.283 7.916-19.608 11.86l-.104.065c-6.622 4.126-12.3 7.877-14.848 10.05l-18.302-1.332-21.406-25.92-1.112-1.345 2.897-5.329v-99.114l-9.093.284v8.369l3.997 4.319V27.42l1.681.091z" style="fill:#eac286;fill-opacity:1;fill-rule:nonzero;stroke:#df814e;stroke-width:.86;stroke-linecap:butt;stroke-linejoin:miter;stroke-miterlimit:10;stroke-dasharray:none;stroke-opacity:1" transform="matrix(.09971 0 0 -.09972 37.773 53.458)" clip-path="url(#q)"/><path d="M0 0v.75" style="fill:none;stroke:#df814e;stroke-width:.86;stroke-linecap:butt;stroke-linejoin:miter;stroke-miterlimit:10;stroke-dasharray:none;stroke-opacity:1" transform="matrix(.09971 0 0 -.09972 19.389 50.723)" clip-path="url(#r)"/><path d="m0 0 21.618 25.942 18.293 1.33 21.618-14.634L86.141-1.33 45.898 3.659Z" style="fill:#dc6b49;fill-opacity:1;fill-rule:nonzero;stroke:#df814e;stroke-width:.86;stroke-linecap:butt;stroke-linejoin:miter;stroke-miterlimit:10;stroke-dasharray:none;stroke-opacity:1" transform="matrix(.09971 0 0 -.09972 19.698 54.628)" clip-path="url(#s)"/><path d="m0 0-.039-6.726" style="fill:#eac286;fill-opacity:1;fill-rule:nonzero;stroke:#df814e;stroke-width:.86;stroke-linecap:butt;stroke-linejoin:miter;stroke-miterlimit:10;stroke-dasharray:none;stroke-opacity:1" transform="matrix(.09971 0 0 -.09972 24.276 54.264)" clip-path="url(#t)"/><path d="m0 0 19.512 3.991v-26.275L0-26.275Z" style="fill:#434b4f;fill-opacity:1;fill-rule:nonzero;stroke:#df814e;stroke-width:.86;stroke-linecap:butt;stroke-linejoin:miter;stroke-miterlimit:10;stroke-dasharray:none;stroke-opacity:1" transform="matrix(.09971 0 0 -.09972 5.548 31.51)" clip-path="url(#u)"/><path d="M0 0v-25.942l17.295-5.654v25.277z" style="fill:#434b4f;fill-opacity:1;fill-rule:nonzero;stroke:#df814e;stroke-width:.86;stroke-linecap:butt;stroke-linejoin:miter;stroke-miterlimit:10;stroke-dasharray:none;stroke-opacity:1" transform="matrix(.09971 0 0 -.09972 14.094 31.544)" clip-path="url(#v)"/><path d="M0 0c0-6.888-3.723-12.472-8.315-12.472S-16.63-6.888-16.63 0s3.723 12.472 8.315 12.472S0 6.888 0 0" style="fill:#434b4f;fill-opacity:1;fill-rule:nonzero;stroke:#df814e;stroke-width:.86;stroke-linecap:butt;stroke-linejoin:miter;stroke-miterlimit:10;stroke-dasharray:none;stroke-opacity:1" transform="matrix(.09971 0 0 -.09972 15.818 37.43)" clip-path="url(#w)"/><path d="M0 0c0-6.8-3.711-12.312-8.288-12.312-4.578 0-8.289 5.512-8.289 12.312s3.711 12.312 8.289 12.312C-3.711 12.312 0 6.8 0 0" style="fill:#434b4f;fill-opacity:1;fill-rule:nonzero;stroke:#df814e;stroke-width:.86;stroke-linecap:butt;stroke-linejoin:miter;stroke-miterlimit:10;stroke-dasharray:none;stroke-opacity:1" transform="matrix(.09971 0 0 -.09972 7.328 37.015)" clip-path="url(#x)"/><path d="M0 0v-42.01l-26.929-2.69v43.368s0 15.637 14.965 17.629c0 0 12.973 0 11.964-16.297" style="fill:#434b4f;fill-opacity:1;fill-rule:nonzero;stroke:none" transform="matrix(.09971 0 0 -.09972 7.328 43.617)" clip-path="url(#y)"/><path d="M0 0v-42.01l-26.929-2.69v43.368s0 15.637 14.965 17.629c0 0 12.973 0 11.964-16.297z" style="fill:none;stroke:#df814e;stroke-width:.86;stroke-linecap:butt;stroke-linejoin:miter;stroke-miterlimit:10;stroke-dasharray:none;stroke-opacity:1" transform="matrix(.09971 0 0 -.09972 7.328 43.617)" clip-path="url(#z)"/><path d="M0 0Z" style="fill:#434b4f;fill-opacity:1;fill-rule:nonzero;stroke:none" transform="matrix(.09971 0 0 -.09972 7.328 47.806)" clip-path="url(#A)"/><path d="M0 0" style="fill:none;stroke:#df814e;stroke-width:.86;stroke-linecap:butt;stroke-linejoin:miter;stroke-miterlimit:10;stroke-dasharray:none;stroke-opacity:1" transform="matrix(.09971 0 0 -.09972 7.328 47.806)" clip-path="url(#B)"/><path d="M0 0v.194" style="fill:#434b4f;fill-opacity:1;fill-rule:nonzero;stroke:#df814e;stroke-width:.86;stroke-linecap:butt;stroke-linejoin:miter;stroke-miterlimit:10;stroke-dasharray:none;stroke-opacity:1" transform="matrix(.09971 0 0 -.09972 4.642 48.094)" clip-path="url(#C)"/><path d="m0 0 26.94 4.371" style="fill:none;stroke:#df814e;stroke-width:.86;stroke-linecap:butt;stroke-linejoin:miter;stroke-miterlimit:10;stroke-dasharray:none;stroke-opacity:1" transform="matrix(.09971 0 0 -.09972 4.642 44.052)" clip-path="url(#D)"/><path d="M0 0v-59.487" style="fill:none;stroke:#df814e;stroke-width:.86;stroke-linecap:butt;stroke-linejoin:miter;stroke-miterlimit:10;stroke-dasharray:none;stroke-opacity:1" transform="matrix(.09971 0 0 -.09972 6.051 41.991)" clip-path="url(#E)"/><path d="M0 0v42.128C0 59.09-10.643 60.753-10.643 60.753c-10.975-1.663-9.978-13.636-9.978-13.636V3.746Z" style="fill:#434b4f;fill-opacity:1;fill-rule:nonzero;stroke:#df814e;stroke-width:.86;stroke-linecap:butt;stroke-linejoin:miter;stroke-miterlimit:10;stroke-dasharray:none;stroke-opacity:1" transform="matrix(.09971 0 0 -.09972 16.349 48.415)" clip-path="url(#F)"/><path d="m0 0-.321 58.88" style="fill:none;stroke:#df814e;stroke-width:.86;stroke-linecap:butt;stroke-linejoin:miter;stroke-miterlimit:10;stroke-dasharray:none;stroke-opacity:1" transform="matrix(.09971 0 0 -.09972 15.32 48.228)" clip-path="url(#G)"/><path d="m0 0 20.621-4.989" style="fill:none;stroke:#df814e;stroke-width:.86;stroke-linecap:butt;stroke-linejoin:miter;stroke-miterlimit:10;stroke-dasharray:none;stroke-opacity:1" transform="matrix(.09971 0 0 -.09972 14.293 43.716)" clip-path="url(#H)"/><path d="m0 0-90.021-21.29" style="fill:none;stroke:#df814e;stroke-width:.86;stroke-linecap:butt;stroke-linejoin:miter;stroke-miterlimit:10;stroke-dasharray:none;stroke-opacity:1" transform="matrix(.09971 0 0 -.09972 10.988 29.177)" clip-path="url(#I)"/><path d="M0 0v-21.07l-8.653-1.772v20.734z" style="fill:#434b4f;fill-opacity:1;fill-rule:nonzero;stroke:#df814e;stroke-width:.86;stroke-linecap:butt;stroke-linejoin:miter;stroke-miterlimit:10;stroke-dasharray:none;stroke-opacity:1" transform="matrix(.09971 0 0 -.09972 5.416 27.187)" clip-path="url(#J)"/><path d="M0 0v-20.617l-3.893-.996-5.639-1.448v21.069l4.772.996z" style="fill:#434b4f;fill-opacity:1;fill-rule:nonzero;stroke:#df814e;stroke-width:.86;stroke-linecap:butt;stroke-linejoin:miter;stroke-miterlimit:10;stroke-dasharray:none;stroke-opacity:1" transform="matrix(.09971 0 0 -.09972 9.682 26.17)" clip-path="url(#K)"/><path d="M0 0v-20.621" style="fill:none;stroke:#df814e;stroke-width:.86;stroke-linecap:butt;stroke-linejoin:miter;stroke-miterlimit:10;stroke-dasharray:none;stroke-opacity:1" transform="matrix(.09971 0 0 -.09972 4.985 27.32)" clip-path="url(#L)"/><path d="m0 0 .867-20.621" style="fill:none;stroke:#df814e;stroke-width:.86;stroke-linecap:butt;stroke-linejoin:miter;stroke-miterlimit:10;stroke-dasharray:none;stroke-opacity:1" transform="matrix(.09971 0 0 -.09972 9.207 26.27)" clip-path="url(#M)"/><path d="m0 0-34.366-3.415" style="fill:#434b4f;fill-opacity:1;fill-rule:nonzero;stroke:#df814e;stroke-width:.86;stroke-linecap:butt;stroke-linejoin:miter;stroke-miterlimit:10;stroke-dasharray:none;stroke-opacity:1" transform="matrix(.09971 0 0 -.09972 4.642 48.074)" clip-path="url(#N)"/><path d="m0 0-36.707-3.647" style="fill:#434b4f;fill-opacity:1;fill-rule:nonzero;stroke:#df814e;stroke-width:.86;stroke-linecap:butt;stroke-linejoin:miter;stroke-miterlimit:10;stroke-dasharray:none;stroke-opacity:1" transform="matrix(.09971 0 0 -.09972 10.988 47.442)" clip-path="url(#O)"/><path d="m0 0 39.357 25.388L98.003 4.989" style="fill:none;stroke:#df814e;stroke-width:.86;stroke-linecap:butt;stroke-linejoin:miter;stroke-miterlimit:10;stroke-dasharray:none;stroke-opacity:1" transform="matrix(.09971 0 0 -.09972 1.215 50.947)" clip-path="url(#P)"/><path d="m0 0 39.357 26.607 58.646-21.84" style="fill:none;stroke:#df814e;stroke-width:.86;stroke-linecap:butt;stroke-linejoin:miter;stroke-miterlimit:10;stroke-dasharray:none;stroke-opacity:1" transform="matrix(.09971 0 0 -.09972 1.215 51.422)" clip-path="url(#Q)"/><path d="m0 0-98.002-5.652" style="fill:none;stroke:#df814e;stroke-width:.86;stroke-linecap:butt;stroke-linejoin:miter;stroke-miterlimit:10;stroke-dasharray:none;stroke-opacity:1" transform="matrix(.09971 0 0 -.09972 10.988 53.335)" clip-path="url(#R)"/><path d="M0 0c0-6.691-4.189-12.115-9.356-12.115S-18.712-6.691-18.712 0s4.189 12.115 9.356 12.115S0 6.691 0 0" style="fill:#434b4f;fill-opacity:1;fill-rule:nonzero;stroke:#df814e;stroke-width:.86;stroke-linecap:butt;stroke-linejoin:miter;stroke-miterlimit:10;stroke-dasharray:none;stroke-opacity:1" transform="matrix(.09971 0 0 -.09972 21.564 45.205)" clip-path="url(#S)"/><path d="M0 0c0-6.051-3.788-10.957-8.461-10.957-4.674 0-8.462 4.906-8.462 10.957 0 6.051 3.788 10.957 8.462 10.957C-3.788 10.957 0 6.051 0 0" style="fill:#434b4f;fill-opacity:1;fill-rule:nonzero;stroke:#df814e;stroke-width:.86;stroke-linecap:butt;stroke-linejoin:miter;stroke-miterlimit:10;stroke-dasharray:none;stroke-opacity:1" transform="matrix(.09971 0 0 -.09972 24.993 46.253)" clip-path="url(#T)"/><path d="M0 0c0-5.463-3.42-9.891-7.639-9.891-4.218 0-7.638 4.428-7.638 9.891s3.42 9.891 7.638 9.891C-3.42 9.891 0 5.463 0 0" style="fill:#434b4f;fill-opacity:1;fill-rule:nonzero;stroke:#df814e;stroke-width:.86;stroke-linecap:butt;stroke-linejoin:miter;stroke-miterlimit:10;stroke-dasharray:none;stroke-opacity:1" transform="matrix(.09971 0 0 -.09972 28.015 47.12)" clip-path="url(#U)"/><path d="M0 0c0-4.993-3.126-9.04-6.982-9.04-3.855 0-6.981 4.047-6.981 9.04 0 4.993 3.126 9.04 6.981 9.04C-3.126 9.04 0 4.993 0 0" style="fill:#434b4f;fill-opacity:1;fill-rule:nonzero;stroke:#df814e;stroke-width:.86;stroke-linecap:butt;stroke-linejoin:miter;stroke-miterlimit:10;stroke-dasharray:none;stroke-opacity:1" transform="matrix(.09971 0 0 -.09972 31.07 47.967)" clip-path="url(#V)"/><path d="M0 0c0-4.774-2.989-8.645-6.676-8.645-3.687 0-6.676 3.871-6.676 8.645 0 4.774 2.989 8.645 6.676 8.645C-2.989 8.645 0 4.774 0 0" style="fill:#434b4f;fill-opacity:1;fill-rule:nonzero;stroke:#df814e;stroke-width:.86;stroke-linecap:butt;stroke-linejoin:miter;stroke-miterlimit:10;stroke-dasharray:none;stroke-opacity:1" transform="matrix(.09971 0 0 -.09972 34.196 48.768)" clip-path="url(#W)"/><path d="M0 0c0-4.547-2.847-8.234-6.359-8.234S-12.718-4.547-12.718 0c0 4.547 2.847 8.234 6.359 8.234S0 4.547 0 0" style="fill:#434b4f;fill-opacity:1;fill-rule:nonzero;stroke:#df814e;stroke-width:.86;stroke-linecap:butt;stroke-linejoin:miter;stroke-miterlimit:10;stroke-dasharray:none;stroke-opacity:1" transform="matrix(.09971 0 0 -.09972 37.319 49.57)" clip-path="url(#X)"/><path d="M0 0v-97.433l-37.923-1.668.634 104.016z" style="fill:#eac286;fill-opacity:1;fill-rule:nonzero;stroke:#df814e;stroke-width:.86;stroke-linecap:butt;stroke-linejoin:miter;stroke-miterlimit:10;stroke-dasharray:none;stroke-opacity:1" transform="matrix(.09971 0 0 -.09972 27.99 55.424)" clip-path="url(#Y)"/><path d="m0 0-.634-104.016-43.239 1.319v99.114L-.634.078z" style="fill:#eac286;fill-opacity:1;fill-rule:nonzero;stroke:#df814e;stroke-width:.86;stroke-linecap:butt;stroke-linejoin:miter;stroke-miterlimit:10;stroke-dasharray:none;stroke-opacity:1" transform="matrix(.09971 0 0 -.09972 24.272 54.934)" clip-path="url(#Z)"/><path d="m0 0-2.411-.493v-1.356l-16.238 1.82-.276.029-18.829-1.355-1.262 1.973.485.498 9.321 9.598 7.97.493c1.11-.805 3.582-2.193 6.466-3.721l.045-.024A441.96 441.96 0 0 1-6.19 3.07l.023-.014A669.992 669.992 0 0 1-1.295.637L0 0" style="fill:#eac286;fill-opacity:1;fill-rule:nonzero;stroke:#df814e;stroke-width:.86;stroke-linecap:butt;stroke-linejoin:miter;stroke-miterlimit:10;stroke-dasharray:none;stroke-opacity:1" transform="matrix(.09971 0 0 -.09972 33.942 60.962)" clip-path="url(#aa)"/><path d="m0 0 9.414 9.606 7.966.493 9.414-5.419L37.512-.493 19.987 1.355Z" style="fill:#dc6b49;fill-opacity:1;fill-rule:nonzero;stroke:#df814e;stroke-width:.86;stroke-linecap:butt;stroke-linejoin:miter;stroke-miterlimit:10;stroke-dasharray:none;stroke-opacity:1" transform="matrix(.09971 0 0 -.09972 30.091 60.851)" clip-path="url(#ab)"/><path d="m0 0-.017-2.49" style="fill:#eac286;fill-opacity:1;fill-rule:nonzero;stroke:#df814e;stroke-width:.86;stroke-linecap:butt;stroke-linejoin:miter;stroke-miterlimit:10;stroke-dasharray:none;stroke-opacity:1" transform="matrix(.09971 0 0 -.09972 32.084 60.717)" clip-path="url(#ac)"/><path d="M0 0v-37.416l-16.514-.658.276 39.894z" style="fill:#eac286;fill-opacity:1;fill-rule:nonzero;stroke:#df814e;stroke-width:.86;stroke-linecap:butt;stroke-linejoin:miter;stroke-miterlimit:10;stroke-dasharray:none;stroke-opacity:1" transform="matrix(.09971 0 0 -.09972 33.702 61.147)" clip-path="url(#ad)"/><path d="m0 0-.276-39.894-18.829-.661v39.228L-.276.029z" style="fill:#eac286;fill-opacity:1;fill-rule:nonzero;stroke:#df814e;stroke-width:.86;stroke-linecap:butt;stroke-linejoin:miter;stroke-miterlimit:10;stroke-dasharray:none;stroke-opacity:1" transform="matrix(.09971 0 0 -.09972 32.083 60.965)" clip-path="url(#ae)"/><path d="M0 0v45.232h1.441s-.499 9.479 4.49 10.144c4.989.666 5.987-6.984 6.153-11.474V0Z" style="fill:#434b4f;fill-opacity:1;fill-rule:nonzero;stroke:#df814e;stroke-width:.86;stroke-linecap:butt;stroke-linejoin:miter;stroke-miterlimit:10;stroke-dasharray:none;stroke-opacity:1" transform="matrix(.09971 0 0 -.09972 28.741 59.139)" clip-path="url(#af)"/><path d="M0 0v43.163h1.441s-.499 9.045 4.49 9.68c4.989.635 5.987-6.665 6.153-10.949V0Z" style="fill:#434b4f;fill-opacity:1;fill-rule:nonzero;stroke:#df814e;stroke-width:.86;stroke-linecap:butt;stroke-linejoin:miter;stroke-miterlimit:10;stroke-dasharray:none;stroke-opacity:1" transform="matrix(.09971 0 0 -.09972 31.71 59.255)" clip-path="url(#ag)"/><path d="M0 0v41.534h1.387s-.48 8.704 4.32 9.315c4.801.611 5.761-6.413 5.921-10.536V0Z" style="fill:#434b4f;fill-opacity:1;fill-rule:nonzero;stroke:#df814e;stroke-width:.86;stroke-linecap:butt;stroke-linejoin:miter;stroke-miterlimit:10;stroke-dasharray:none;stroke-opacity:1" transform="matrix(.09971 0 0 -.09972 34.506 59.404)" clip-path="url(#ah)"/><path d="M0 0v-115.727" style="fill:none;stroke:#df814e;stroke-width:.866;stroke-linecap:butt;stroke-linejoin:miter;stroke-miterlimit:10;stroke-dasharray:none;stroke-opacity:1" transform="matrix(.09971 0 0 -.09972 9.294 53.458)" clip-path="url(#ai)"/><path d="M0 0v-107.227" style="fill:none;stroke:#df814e;stroke-width:.834;stroke-linecap:butt;stroke-linejoin:miter;stroke-miterlimit:10;stroke-dasharray:none;stroke-opacity:1" transform="matrix(.09971 0 0 -.09972 2.155 53.865)" clip-path="url(#aj)"/><path d="m0 0-75.833-20.423" style="fill:none;stroke:#df814e;stroke-width:.86;stroke-linecap:butt;stroke-linejoin:miter;stroke-miterlimit:10;stroke-dasharray:none;stroke-opacity:1" transform="matrix(.09971 0 0 -.09972 10.988 28.07)" clip-path="url(#ak)"/><path d="M0 0v48.458h18.629V-.927Z" style="fill:#434b4f;fill-opacity:1;fill-rule:nonzero;stroke:#df814e;stroke-width:.86;stroke-linecap:butt;stroke-linejoin:miter;stroke-miterlimit:10;stroke-dasharray:none;stroke-opacity:1" transform="matrix(.09971 0 0 -.09972 4.642 64.682)" clip-path="url(#al)"/><path d="M0 0v43.074h18.629V-.568Z" style="fill:#434b4f;fill-opacity:1;fill-rule:nonzero;stroke:#df814e;stroke-width:.86;stroke-linecap:butt;stroke-linejoin:miter;stroke-miterlimit:10;stroke-dasharray:none;stroke-opacity:1" transform="matrix(.09971 0 0 -.09972 21.035 65.186)" clip-path="url(#am)"/><path d="M0 0v31.214l9.351-.743V.411Z" style="fill:#434b4f;fill-opacity:1;fill-rule:nonzero;stroke:#df814e;stroke-width:.432;stroke-linecap:butt;stroke-linejoin:miter;stroke-miterlimit:10;stroke-dasharray:none;stroke-opacity:1" transform="matrix(.09971 0 0 -.09972 32.45 64.944)" clip-path="url(#an)"/><path d="M0 0h19.736s1.688 13.696-4.069 17.955C9.91 22.214-1.791 18.589 0 0" style="fill:#434b4f;fill-opacity:1;fill-rule:nonzero;stroke:#df814e;stroke-width:.86;stroke-linecap:butt;stroke-linejoin:miter;stroke-miterlimit:10;stroke-dasharray:none;stroke-opacity:1" transform="matrix(.09971 0 0 -.09972 4.562 58.704)" clip-path="url(#ao)"/><path d="m0 0-5.292 3.915.36 4.137c3.782 3.646 3.504 8.989-1.091 11.652-4.595 2.663-5.382 6.425-5.382 6.425l.063.124c.727 1.437.327 3.151-.973 4.175l-.883.696 1.069 9.479-2.579 11.428-3.446-11.19.858-9.869c-1.343-1.037-2.43-2.654-.966-4.261l.748-1.405c-1.964-4.383-5.401-6.285-5.401-6.285-5.381-3.987-.714-9.838-.714-9.838l1.089-1.85-.25-3.826-4.297-4.226" style="fill:#83aa98;fill-opacity:1;fill-rule:nonzero;stroke:#434b4f;stroke-width:1;stroke-linecap:butt;stroke-linejoin:miter;stroke-miterlimit:10;stroke-dasharray:none;stroke-opacity:1" transform="matrix(.09971 0 0 -.09972 33.318 39.91)" clip-path="url(#ap)"/><path d="m0 0 .499 16.516-2.703 3.911 1.947 1.703 6.408 2.611 11.047.806 9.632-2.698 2.072-2.358-2.384-2.863-.432-15.369 3.687-3.474-1.19-1.355-.311-11.066-7.992 2.503L4.133-.797z" style="fill:#6a8a7b;fill-opacity:1;fill-rule:nonzero;stroke:#434b4f;stroke-width:1;stroke-linecap:butt;stroke-linejoin:miter;stroke-miterlimit:10;stroke-dasharray:none;stroke-opacity:1" transform="matrix(.09971 0 0 -.09972 30.642 42.189)" clip-path="url(#aq)"/><path d="m0 0 5.406 2.327 9.611 1.39 7.137-.627 3.865-1.978" style="fill:#6a8a7b;fill-opacity:1;fill-rule:nonzero;stroke:#434b4f;stroke-width:1;stroke-linecap:butt;stroke-linejoin:miter;stroke-miterlimit:10;stroke-dasharray:none;stroke-opacity:1" transform="matrix(.09971 0 0 -.09972 30.692 40.541)" clip-path="url(#ar)"/><path d="M0 0c-.122-1.4-1.204-2.517-2.59-2.83a3.425 3.425 0 0 0-1.067-.081c-.345.026-.67.097-.975.213C-5.988-2.2-6.895-.916-6.771.515c.152 1.745 1.789 3.045 3.665 2.903C-1.239 3.276.152 1.746 0 0" style="fill:#fcc008;fill-opacity:1;fill-rule:nonzero;stroke:#fcc008;stroke-width:1.008;stroke-linecap:butt;stroke-linejoin:miter;stroke-miterlimit:10;stroke-dasharray:none;stroke-opacity:1" transform="matrix(.09971 0 0 -.09972 32.178 34.34)" clip-path="url(#as)"/><path d="m0 0-.388-13.797 3.481-1.291L3.542.899Z" style="fill:#434b4f;fill-opacity:1;fill-rule:nonzero;stroke:#587467;stroke-width:1;stroke-linecap:butt;stroke-linejoin:miter;stroke-miterlimit:10;stroke-dasharray:none;stroke-opacity:1" transform="matrix(.09971 0 0 -.09972 31.093 40.699)" clip-path="url(#at)"/><path d="m0 0-.625-22.237-3.468 1.738.606 21.571z" style="fill:#434b4f;fill-opacity:1;fill-rule:nonzero;stroke:#587467;stroke-width:1;stroke-linecap:butt;stroke-linejoin:miter;stroke-miterlimit:10;stroke-dasharray:none;stroke-opacity:1" transform="matrix(.09971 0 0 -.09972 32.95 40.745)" clip-path="url(#au)"/><path d="m0 0 .514 18.506 4.127-.1-.596-21.462Z" style="fill:#434b4f;fill-opacity:1;fill-rule:nonzero;stroke:#587467;stroke-width:1;stroke-linecap:butt;stroke-linejoin:miter;stroke-miterlimit:10;stroke-dasharray:none;stroke-opacity:1" transform="matrix(.09971 0 0 -.09972 31.747 42.387)" clip-path="url(#av)"/><path d="m0 0 7.675 2.303.089-19.141-7.779-1.881z" style="fill:#434b4f;fill-opacity:1;fill-rule:nonzero;stroke:#df814e;stroke-width:.86;stroke-linecap:butt;stroke-linejoin:miter;stroke-miterlimit:10;stroke-dasharray:none;stroke-opacity:1" transform="matrix(.09971 0 0 -.09972 6.523 27.354)" clip-path="url(#aw)"/><path d="m0 0-14.296-3.885Z" style="fill:#434b4f;fill-opacity:1;fill-rule:nonzero;stroke:#df814e;stroke-width:.86;stroke-linecap:butt;stroke-linejoin:miter;stroke-miterlimit:10;stroke-dasharray:none;stroke-opacity:1" transform="matrix(.09971 0 0 -.09972 7.603 27.026)" clip-path="url(#ax)"/><path d="m0 0-.123-18.76 8.647-3.834v19.519z" style="fill:#434b4f;fill-opacity:1;fill-rule:nonzero;stroke:#df814e;stroke-width:.86;stroke-linecap:butt;stroke-linejoin:miter;stroke-miterlimit:10;stroke-dasharray:none;stroke-opacity:1" transform="matrix(.09971 0 0 -.09972 14.162 27.09)" clip-path="url(#ay)"/><path d="M0 0v-19.712" style="fill:none;stroke:#df814e;stroke-width:.86;stroke-linecap:butt;stroke-linejoin:miter;stroke-miterlimit:10;stroke-dasharray:none;stroke-opacity:1" transform="matrix(.09971 0 0 -.09972 14.58 27.242)" clip-path="url(#az)"/><path d="m0 0-185.372 48.775-4.423 6.648v3.388l3.893 2.432 6.299 3.945-14.629 4.876v16.401h2.652A8706527.525 8706527.525 0 0 1-74.946 50.711l4.31-1.321 16.394-10.196 7.78-2.441.111 3.348L0 0" style="fill:#dc6b49;fill-opacity:1;fill-rule:nonzero;stroke:#df814e;stroke-width:.86;stroke-linecap:butt;stroke-linejoin:miter;stroke-miterlimit:10;stroke-dasharray:none;stroke-opacity:1" transform="matrix(.09971 0 0 -.09972 38.094 47.176)" clip-path="url(#aA)"/></svg>